<svg xmlns="http://www.w3.org/2000/svg" viewBox="0 0 56.86 168.01"><defs><style>.cls-1{fill:#f4f4f4;}.cls-2{fill:#e3f0f5;}.cls-3{fill:#338da5;}</style></defs><g id="Layer_2" data-name="Layer 2"><g id="Layer_1-2" data-name="Layer 1"><rect class="cls-1" x="9.73" y="14.77" width="37.66" height="56.04"/><path class="cls-2" d="M15.64,66.18l-.23,75.07c0,8.79,5.11,14.7,12.75,14.71,7.29,0,12.44-5.82,12.49-14.41l.07-38.84.72-42.29L46,58.3,45.14,143c-1.46,8.73-6.74,17.78-16.85,17.76-10.57.93-17.46-7.69-17.42-18.33.11-25.69.18-52.66.24-78.36Z"/><path class="cls-3" d="M10,1.64C24.42-1,37.93-.21,51.35,2.48c5.2,1,7,5.37,4.1,9.74-2.64,3.92-2.53,8.12-2.73,12.4-.45,9.85-.73,19.79-.5,29.56.53,22.09,0,44.16.33,66.24.11,8,.24,16-.14,23.93-.56,11.6-7.75,20.34-18.2,22.84-11.5,2.75-21.35-1.46-27.63-11.77a24.21,24.21,0,0,1-3.19-12.9q.18-61.32.7-122.63a13.2,13.2,0,0,0-2.21-7C-1.41,7.39-.5,5,5.54,2.85,7.26,2.24,9.07,1.88,10,1.64ZM45.34,15s-11.15,2.85-18.26,2.73a56.71,56.71,0,0,1-15-2.3.86.86,0,0,0-1.09.85l.18,6.56Q11,82.63,10.87,142.39c0,5.69,2,10.46,5.41,13.71.3.29,5.28,5,12,4.62,6.54-.38,14.7-6.89,16.85-17.76L46,15.53C45.94,15.25,45.73,14.91,45.34,15Z"/><path class="cls-3" d="M40.65,141.55c0,8.59-5.2,14.42-12.49,14.41-7.64,0-12.77-5.92-12.75-14.71q.11-37.54.23-75.07c9.06,2.13,17.88-1.5,25.8-5.76"/><ellipse class="cls-3" cx="28.43" cy="60.67" rx="13.01" ry="3.15" transform="translate(-14.94 9.6) rotate(-15.23)"/><ellipse class="cls-2" cx="28.43" cy="8.42" rx="20.56" ry="5.74"/><circle class="cls-3" cx="20.69" cy="28.88" r="6.3"/><circle class="cls-3" cx="32.9" cy="38.49" r="4.3"/><circle class="cls-3" cx="24.9" cy="50.68" r="3.03"/><circle class="cls-2" cx="22.26" cy="118.56" r="1.66"/><ellipse class="cls-2" cx="27.33" cy="99.84" rx="2.29" ry="2.21"/><ellipse class="cls-2" cx="22.84" cy="82.79" rx="1.17" ry="1.12"/><ellipse class="cls-2" cx="30.84" cy="72.79" rx="0.79" ry="0.76"/></g></g></svg>